<svg viewBox="0 0 68 48" fill="none" xmlns="http://www.w3.org/2000/svg">
<path d="M67.0905 21.9412C59.7724 7.50978 48.7103 0.24707 33.8811 0.24707C19.0442 0.24707 7.98983 7.50977 0.671718 21.9485C0.378186 22.5303 0.225952 23.1658 0.225952 23.8093C0.225952 24.4528 0.378186 25.0883 0.671718 25.6701C7.98983 40.1016 19.0519 47.3643 33.8811 47.3643C48.718 47.3643 59.7724 40.1016 67.0905 25.6629C67.6849 24.4922 67.6849 23.1336 67.0905 21.9412ZM33.8811 42.1612C21.4295 42.1612 12.3128 36.2498 5.8824 23.8057C12.3128 11.3615 21.4295 5.4502 33.8811 5.4502C46.3327 5.4502 55.4495 11.3615 61.8798 23.8057C55.4572 36.2498 46.3404 42.1612 33.8811 42.1612Z" fill="currentColor"/>
<path d="M33.5723 11.0869C26.0689 11.0869 19.986 16.7815 19.986 23.8057C19.986 30.8299 26.0689 36.5244 33.5723 36.5244C41.0757 36.5244 47.1587 30.8299 47.1587 23.8057C47.1587 16.7815 41.0757 11.0869 33.5723 11.0869ZM33.5723 31.8994C28.7939 31.8994 24.9265 28.2789 24.9265 23.8057C24.9265 19.3324 28.7939 15.7119 33.5723 15.7119C38.3507 15.7119 42.2182 19.3324 42.2182 23.8057C42.2182 28.2789 38.3507 31.8994 33.5723 31.8994Z" fill="currentColor"/>
</svg>
