<svg viewBox="0 0 54 54" fill="none" xmlns="http://www.w3.org/2000/svg">
<path d="M51.6442 21.3295L46.998 19.8361L46.0024 17.3471L48.3255 13.0328C48.8233 12.0372 48.6574 10.7097 47.8277 9.88006L43.8453 5.89763C43.0156 5.06796 41.6881 4.90202 40.6925 5.39983L36.3782 7.72291L33.8892 6.7273L32.3958 2.08114C32.0639 1.08553 31.0683 0.255859 29.9068 0.255859H24.265C23.1035 0.255859 22.1079 1.08553 21.9419 2.24707L20.4485 6.89324C19.4529 7.05917 18.6232 7.39104 17.7936 7.88884L13.4793 5.56576C12.4837 5.06796 11.1562 5.23389 10.3265 6.06356L6.34408 10.046C5.51441 10.8757 5.34847 12.2031 5.84628 13.1987L8.00343 17.3471C7.67156 18.1768 7.33969 19.1724 7.00782 20.0021L2.36166 21.4955C1.36605 21.8273 0.536377 22.8229 0.536377 23.9845V29.6263C0.536377 30.7878 1.36605 31.7834 2.52759 32.1153L7.17375 33.6087L8.16936 36.0977L5.84628 40.412C5.34847 41.4076 5.51441 42.7351 6.34408 43.5647L10.3265 47.5472C11.1562 48.3768 12.4837 48.5428 13.4793 48.045L17.7936 45.7219L20.2826 46.7175L21.776 51.5296C22.1079 52.5252 23.1035 53.3549 24.265 53.3549H29.9068C31.0683 53.3549 32.0639 52.5252 32.3958 51.5296L33.8892 46.7175L36.3782 45.7219L40.6925 48.045C41.6881 48.5428 43.0156 48.3768 43.8453 47.5472L47.8277 43.5647C48.6574 42.7351 48.8233 41.4076 48.3255 40.412L46.0024 36.0977L46.998 33.6087L51.8101 32.1153C52.8057 31.7834 53.6354 30.7878 53.6354 29.6263V23.9845C53.6354 22.8229 52.8057 21.6614 51.6442 21.3295ZM50.3167 29.1284L44.3431 30.9537L44.1771 31.7834L42.6837 35.268L42.1859 36.0977L45.1727 41.5735L41.854 44.8922L36.3782 41.9054L35.5485 42.4032C34.387 43.0669 33.2255 43.5647 32.0639 43.8966L31.2342 44.0625L29.409 50.0362H24.7628L22.9375 44.0625L22.1079 43.8966L18.6232 42.4032L17.7936 41.9054L12.3177 44.8922L8.99903 41.5735L11.9859 36.0977L11.488 35.268C10.8243 34.1065 10.3265 32.9449 9.99464 31.7834L9.8287 30.9537L3.85507 29.1284V24.4823L9.49684 22.8229L9.8287 21.9933C10.1606 20.6658 10.6584 19.5043 11.3221 18.3427L11.8199 17.513L8.99903 12.0372L12.3177 8.71851L17.6276 11.7053L18.4573 11.2075C19.6188 10.5438 20.7804 10.046 22.1079 9.71412L22.9375 9.38225L24.7628 3.57455H29.409L31.2342 9.38225L32.0639 9.71412C33.2255 10.046 34.387 10.5438 35.5485 11.2075L36.3782 11.7053L41.854 8.71851L45.1727 12.0372L42.1859 17.513L42.6837 18.3427C43.3475 19.5043 43.8453 20.6658 44.1771 21.8273L44.3431 22.657L50.3167 24.4823V29.1284Z" fill="currentColor"/>
<path d="M27.5839 15.1899C21.1125 15.1899 15.9685 20.3339 15.9685 26.8053C15.9685 33.2768 21.1125 38.4208 27.5839 38.4208C34.0554 38.4208 39.1993 33.2768 39.1993 26.8053C39.1993 20.3339 34.0554 15.1899 27.5839 15.1899ZM27.5839 35.1021C22.9378 35.1021 19.2872 31.4515 19.2872 26.8053C19.2872 22.1592 22.9378 18.5086 27.5839 18.5086C32.2301 18.5086 35.8806 22.1592 35.8806 26.8053C35.8806 31.4515 32.2301 35.1021 27.5839 35.1021Z" fill="currentColor"/>
</svg>
