<svg viewBox="0 0 24 27" fill="none" xmlns="http://www.w3.org/2000/svg">
<path d="M0.471988 10.6397L10.5233 0.58838C10.7925 0.319191 11.1577 0.167969 11.5384 0.167969C11.9192 0.167969 12.2844 0.319191 12.5536 0.58838L22.6049 10.6397C22.8742 10.9089 23.0255 11.274 23.0256 11.6548V25.4194C23.0256 25.8002 22.8743 26.1654 22.6051 26.4347C22.3358 26.704 21.9706 26.8553 21.5897 26.8553H14.4102V16.804H8.66665V26.8553H1.48717C1.10634 26.8553 0.741117 26.704 0.471834 26.4347C0.202551 26.1654 0.0512695 25.8002 0.0512695 25.4194V11.6548C0.0513509 11.274 0.202686 10.9089 0.471988 10.6397Z" fill="currentColor"/>
</svg>
