<svg xmlns="http://www.w3.org/2000/svg" viewBox="0 0 337.5 73.46">
  <path fill="currentColor" d="m21.41,45.66l24.94,27.01h-15.12l-20.03-23.27v23.27H0V0h11.2v42.23l19.64-23.67h15.52l-24.94,27.1Zm72.15-27.1v54.11h-11.2v-6.38c-1.77,2.23-4.09,3.99-6.97,5.3-2.82,1.24-5.83,1.87-9.03,1.87-4.26,0-8.09-.88-11.49-2.65-3.34-1.77-5.99-4.39-7.95-7.86-1.9-3.47-2.85-7.66-2.85-12.57v-31.82h11.1v30.15c0,4.84,1.21,8.58,3.63,11.2,2.42,2.55,5.73,3.83,9.92,3.83s7.5-1.28,9.92-3.83c2.49-2.62,3.73-6.35,3.73-11.2v-30.15h11.2Zm16.15,7.86c1.64-2.75,3.8-4.88,6.48-6.38,2.75-1.57,5.99-2.36,9.72-2.36v11.59h-2.85c-4.39,0-7.73,1.11-10.02,3.34-2.23,2.23-3.34,6.09-3.34,11.59v28.48h-11.2V18.56h11.2v7.86Z"/>
  <path fill="currentColor" d="m237.14,72.67c-4.22,0-8.02-.75-11.4-2.24-3.31-1.56-5.94-3.64-7.89-6.23-1.95-2.66-2.99-5.62-3.12-8.86h11.49c.19,2.27,1.27,4.19,3.21,5.75,2.01,1.49,4.51,2.24,7.5,2.24s5.52-.58,7.21-1.75c1.75-1.23,2.63-2.79,2.63-4.68,0-2.01-.97-3.51-2.92-4.48-1.88-.97-4.9-2.05-9.06-3.21-4.03-1.1-7.31-2.18-9.84-3.21s-4.74-2.63-6.62-4.77c-1.82-2.14-2.73-4.97-2.73-8.47,0-2.86.84-5.45,2.53-7.79,1.69-2.4,4.09-4.29,7.21-5.65,3.18-1.36,6.82-2.05,10.91-2.05,6.11,0,11.01,1.56,14.71,4.68,3.77,3.05,5.78,7.24,6.04,12.57h-11.1c-.19-2.4-1.17-4.32-2.92-5.75-1.75-1.43-4.12-2.14-7.11-2.14s-5.16.55-6.72,1.66c-1.56,1.1-2.34,2.56-2.34,4.38,0,1.43.52,2.63,1.56,3.6,1.04.97,2.31,1.75,3.8,2.34,1.49.52,3.7,1.2,6.62,2.05,3.9,1.04,7.08,2.11,9.55,3.21,2.53,1.04,4.71,2.6,6.53,4.68,1.82,2.08,2.76,4.84,2.82,8.28,0,3.05-.85,5.78-2.53,8.18-1.69,2.4-4.09,4.29-7.21,5.65-3.05,1.36-6.66,2.05-10.81,2.05Zm72-29.03c0,2.01-.13,3.83-.39,5.45h-41.01c.32,4.29,1.92,7.73,4.77,10.33,2.86,2.6,6.36,3.9,10.52,3.9,5.97,0,10.2-2.5,12.66-7.5h11.98c-1.62,4.94-4.58,8.99-8.86,12.18-4.22,3.12-9.48,4.68-15.78,4.68-5.13,0-9.74-1.14-13.83-3.41-4.03-2.34-7.21-5.58-9.55-9.74-2.27-4.22-3.41-9.09-3.41-14.61s1.1-10.36,3.31-14.51c2.27-4.22,5.42-7.47,9.45-9.74,4.09-2.27,8.77-3.41,14.03-3.41s9.58,1.1,13.54,3.31c3.96,2.21,7.04,5.33,9.25,9.35,2.21,3.96,3.31,8.54,3.31,13.73Zm-11.59-3.51c-.07-4.09-1.53-7.37-4.38-9.84-2.86-2.47-6.4-3.7-10.62-3.7-3.83,0-7.11,1.23-9.84,3.7-2.73,2.4-4.35,5.68-4.87,9.84h29.71Zm23.88-14.22c1.62-2.73,3.76-4.84,6.43-6.33,2.73-1.56,5.94-2.34,9.64-2.34v11.49h-2.82c-4.35,0-7.66,1.1-9.94,3.31-2.21,2.21-3.31,6.04-3.31,11.49v28.25h-11.1V18.12h11.1v7.79Z"/>
</svg>