<svg viewBox="0 0 2000 2000" fill="none" xmlns="http://www.w3.org/2000/svg">
<g clip-path="url(#clip0_70_38)">
<path d="M1560.01 1573.18C1511.74 1654.02 1407.08 1680.43 1326.24 1632.16L499.24 1148.76C418.4 1100.49 391.99 995.83 440.26 914.99C488.53 834.15 593.19 807.74 674.03 856.01L1184.54 1154.42L1501.02 1339.41C1581.86 1387.68 1608.27 1492.34 1560 1573.18H1560.01Z" stroke="currentColor" stroke-width="50" stroke-miterlimit="10"/>
<path d="M440.22 1085.01C488.49 1165.85 593.15 1192.26 673.99 1143.99L1500.99 660.59C1581.83 612.32 1608.24 507.66 1559.97 426.82C1511.7 345.98 1407.04 319.57 1326.2 367.84L499.2 851.24C418.36 899.51 391.95 1004.17 440.22 1085.01Z" stroke="currentColor" stroke-width="50" stroke-miterlimit="10"/>
<path d="M756.98 1299.42L756.81 1480.73C755.85 1574.88 678.74 1650.42 584.59 1649.46C490.44 1648.5 414.9 1571.39 415.86 1477.24L416.74 519.33C417.7 425.18 494.81 349.64 588.96 350.6C683.11 351.56 758.65 428.67 757.69 522.82L757.53 700.13" stroke="currentColor" stroke-width="50" stroke-miterlimit="10"/>
</g>
</svg>
