<svg viewBox="0 0 45 45" fill="none" xmlns="http://www.w3.org/2000/svg">
<path d="M42.8457 16.0092V9.21055C42.8457 7.40801 42.1296 5.67929 40.855 4.40471C39.5805 3.13012 37.8517 2.41406 36.0492 2.41406H29.2505M29.2505 43.1974H36.0492C37.8517 43.1974 39.5805 42.4813 40.855 41.2067C42.1296 39.9321 42.8457 38.2034 42.8457 36.4009V29.6022M2.06238 29.6022V36.4009C2.06238 38.2034 2.77843 39.9321 4.05302 41.2067C5.32761 42.4813 7.05632 43.1974 8.85886 43.1974H15.6575M15.6575 2.41406H8.85886C7.05632 2.41406 5.32761 3.13012 4.05302 4.40471C2.77843 5.67929 2.06238 7.40801 2.06238 9.21055V16.0092M16.7951 9.21055H10.8429C10.3167 9.21055 9.81206 9.41958 9.43998 9.79166C9.06789 10.1637 8.85886 10.6684 8.85886 11.1946V17.1468C8.85886 17.673 9.06789 18.1776 9.43998 18.5497C9.81206 18.9218 10.3167 19.1308 10.8429 19.1308H16.7951C17.3213 19.1308 17.8259 18.9218 18.198 18.5497C18.5701 18.1776 18.7791 17.673 18.7791 17.1468V11.1946C18.7791 10.6684 18.5701 10.1637 18.198 9.79166C17.8259 9.41958 17.3213 9.21055 16.7951 9.21055ZM16.7951 26.4387H10.8429C10.3167 26.4387 9.81206 26.6478 9.43998 27.0199C9.06789 27.3919 8.85886 27.8966 8.85886 28.4228V34.3749C8.85886 34.9011 9.06789 35.4058 9.43998 35.7779C9.81206 36.15 10.3167 36.359 10.8429 36.359H16.7951C17.3213 36.359 17.8259 36.15 18.198 35.7779C18.5701 35.4058 18.7791 34.9011 18.7791 34.3749V28.4228C18.7791 27.8966 18.5701 27.3919 18.198 27.0199C17.8259 26.6478 17.3213 26.4387 16.7951 26.4387ZM34.0651 9.21055H28.113C27.5868 9.21055 27.0821 9.41958 26.7101 9.79166C26.338 10.1637 26.1289 10.6684 26.1289 11.1946V17.1468C26.1289 17.673 26.338 18.1776 26.7101 18.5497C27.0821 18.9218 27.5868 19.1308 28.113 19.1308H34.0651C34.5914 19.1308 35.096 18.9218 35.4681 18.5497C35.8402 18.1776 36.0492 17.673 36.0492 17.1468V11.1946C36.0492 10.6684 35.8402 10.1637 35.4681 9.79166C35.096 9.41958 34.5914 9.21055 34.0651 9.21055ZM34.0651 26.4806H28.113C27.5868 26.4806 27.0821 26.6897 26.7101 27.0617C26.338 27.4338 26.1289 27.9385 26.1289 28.4647V34.4168C26.1289 34.943 26.338 35.4477 26.7101 35.8198C27.0821 36.1919 27.5868 36.4009 28.113 36.4009H34.0651C34.5914 36.4009 35.096 36.1919 35.4681 35.8198C35.8402 35.4477 36.0492 34.943 36.0492 34.4168V28.4647C36.0492 27.9385 35.8402 27.4338 35.4681 27.0617C35.096 26.6897 34.5914 26.4806 34.0651 26.4806Z" stroke="currentColor" stroke-width="3.30675" stroke-linecap="round" stroke-linejoin="round"/>
</svg>
