<svg viewBox="0 0 29 29" fill="none" xmlns="http://www.w3.org/2000/svg">
<g clip-path="url(#clip0_127_116)">
<path d="M14.7305 8.15918C14.5248 8.15918 14.3275 8.2409 14.182 8.38636C14.0366 8.53182 13.9548 8.7291 13.9548 8.93481V15.6983L18.5311 18.8009C18.7028 18.91 18.9106 18.9472 19.1096 18.9046C19.3085 18.8619 19.4827 18.7427 19.5947 18.5728C19.7066 18.4029 19.7473 18.1958 19.7079 17.9961C19.6686 17.7965 19.5523 17.6203 19.3843 17.5056L15.5061 14.8762V8.93481C15.5061 8.7291 15.4244 8.53182 15.2789 8.38636C15.1335 8.2409 14.9362 8.15918 14.7305 8.15918Z" fill="currentColor"/>
<path d="M14.731 2.08594C12.5152 2.0937 10.3414 2.69126 8.43298 3.81722C6.52457 4.94318 4.95035 6.55693 3.87207 8.49268V4.56797C3.87207 4.36226 3.79035 4.16497 3.64489 4.01951C3.49943 3.87405 3.30215 3.79233 3.09644 3.79233C2.89072 3.79233 2.69344 3.87405 2.54798 4.01951C2.40252 4.16497 2.3208 4.36226 2.3208 4.56797V11.3936H9.14639C9.3521 11.3936 9.54938 11.3118 9.69484 11.1664C9.8403 11.0209 9.92202 10.8236 9.92202 10.6179C9.92202 10.4122 9.8403 10.2149 9.69484 10.0695C9.54938 9.924 9.3521 9.84228 9.14639 9.84228H4.91918C5.89743 7.7777 7.50194 6.07424 9.50438 4.97435C11.5068 3.87445 13.8051 3.43414 16.0723 3.71608C18.3395 3.99802 20.4599 4.98785 22.132 6.5447C23.804 8.10156 24.9424 10.1461 25.3852 12.3874C25.828 14.6287 25.5526 16.9526 24.5982 19.0283C23.6438 21.104 22.059 22.8259 20.0693 23.9487C18.0797 25.0716 15.7866 25.5384 13.5163 25.2826C11.2461 25.0267 9.11434 24.0614 7.42448 22.5239C7.3491 22.4552 7.26092 22.4019 7.16497 22.3672C7.06903 22.3326 6.96719 22.3171 6.86527 22.3218C6.76336 22.3265 6.66336 22.3512 6.571 22.3945C6.47863 22.4379 6.39571 22.499 6.32695 22.5743C6.2582 22.6497 6.20497 22.7379 6.17029 22.8338C6.13561 22.9298 6.12018 23.0316 6.12486 23.1335C6.12954 23.2354 6.15425 23.3354 6.19757 23.4278C6.2409 23.5202 6.302 23.6031 6.37737 23.6719C7.86826 25.0295 9.66751 26.0034 11.6194 26.5093C13.5714 27.0152 15.6171 27.0379 17.5798 26.5753C19.5424 26.1128 21.3628 25.179 22.8834 23.8547C24.404 22.5304 25.579 20.8555 26.3068 18.975C27.0345 17.0945 27.2931 15.065 27.0601 13.0621C26.8271 11.0592 26.1095 9.14321 24.9696 7.47997C23.8296 5.81673 22.3015 4.45633 20.5175 3.51646C18.7335 2.5766 16.7474 2.0856 14.731 2.08594Z" fill="currentColor"/>
</g>
<defs>
<clipPath id="clip0_127_116">
<rect width="27.9229" height="27.9229" fill="currentColor" transform="translate(0.769287 0.535156)"/>
</clipPath>
</defs>
</svg>
